<svg width="540" height="240" viewBox="0 0 540 240" fill="none" xmlns="http://www.w3.org/2000/svg">
<g clip-path="url(#clip0)">
<path d="M113.584 197.609C111.497 212.298 103.824 225.738 95.6376 238.684C95.367 239.125 95.0885 239.559 94.8032 240H9.72054C7.99979 239.599 6.3012 239.158 4.60975 238.684C-5.00008 236.056 -14.0725 232.046 -22.2549 226.81C-53.5568 206.549 -65.6017 168.262 -60.1613 133.956C-56.7784 112.642 -46.3666 90.8803 -26.0918 79.4009C-15.3869 73.329 -1.63617 71.3555 10.687 73.6119C11.0094 73.6645 11.3316 73.7303 11.6608 73.7895C22.2632 75.9341 31.7086 81.2626 37.0833 89.8475C46.7482 105.274 40.9931 124.384 36.2413 141.554C31.5037 158.724 28.9335 179.275 42.6846 191.938C38.1447 179.932 42.6259 165.611 53.47 157.493C61.6633 151.369 73.0712 149.073 83.4758 150.974C84.4715 151.165 85.4529 151.382 86.4193 151.645C88.7552 152.26 91.0073 153.107 93.1336 154.171C109.352 162.309 115.92 181.051 113.584 197.609Z" fill="#F2F2F2"/>
<path d="M63.1353 238.684C65.4928 239.178 67.8578 239.612 70.2375 240H57.3727C55.6884 239.592 54.0116 239.158 52.3498 238.684C48.696 237.658 45.0983 236.48 41.5569 235.152C27.3522 229.797 14.2676 221.758 4.36811 211.061C-0.473366 205.879 -4.42689 200.077 -7.36184 193.846C-10.5444 186.803 -12.567 179.381 -13.3657 171.815C-15.1598 156.29 -13.3293 140.337 -9.90991 125.088C-6.38117 109.283 -0.68504 93.933 7.04813 79.3877C7.97803 77.6445 8.93965 75.9122 9.93298 74.1908C10.0013 74.0491 10.1048 73.9233 10.2354 73.8229C10.3661 73.7226 10.5206 73.6504 10.687 73.6119C11.025 73.553 11.3752 73.6169 11.6609 73.7895C12.0038 73.9662 12.2581 74.2546 12.3712 74.5949C12.4843 74.9352 12.4476 75.3016 12.2687 75.6183C4.29538 89.5881 -1.74862 104.381 -5.72904 119.667C-9.62426 134.581 -11.8355 150.185 -11.0815 165.519C-10.364 179.847 -6.19739 193.938 3.25517 205.654C11.8879 216.35 23.8081 224.784 36.9953 230.527C45.3421 234.115 54.1101 236.851 63.1353 238.684Z" fill="white"/>
<path d="M91.3692 240H87.5762C87.1515 239.566 86.7414 239.125 86.3388 238.684C77.6995 229.253 71.8468 218.018 69.3221 206.016C66.256 191.038 68.6412 175.572 76.1243 161.908C78.2121 158.076 80.6721 154.417 83.4757 150.974C84.4714 151.165 85.4528 151.382 86.4192 151.645C79.0448 160.423 74.0846 170.643 71.9434 181.472C70.0333 191.618 70.6684 202.02 73.8023 211.918C76.9363 221.816 82.4901 230.96 90.0585 238.684C90.4829 239.125 90.9223 239.566 91.3692 240Z" fill="white"/>
<path d="M433.046 228.812C433.597 232.689 435.622 236.236 437.782 239.653C437.854 239.769 437.927 239.884 438.003 240H460.458C460.912 239.894 461.36 239.778 461.806 239.653C464.343 238.959 466.737 237.901 468.896 236.519C477.158 231.172 480.336 221.067 478.901 212.013C478.008 206.388 475.26 200.645 469.909 197.615C467.003 196.025 463.537 195.479 460.202 196.087C460.117 196.101 460.032 196.118 459.945 196.134C458.558 196.375 457.242 196.877 456.086 197.608C454.929 198.338 453.958 199.28 453.236 200.372C450.685 204.443 452.204 209.487 453.458 214.018C454.709 218.55 455.387 223.973 451.758 227.316C452.29 225.918 452.398 224.418 452.071 222.971C451.744 221.523 450.994 220.18 449.897 219.079C448.801 217.978 447.398 217.159 445.833 216.707C444.268 216.254 442.597 216.184 440.992 216.504C440.729 216.555 440.47 216.612 440.215 216.682C439.599 216.844 439.004 217.067 438.443 217.348C434.163 219.496 432.43 224.442 433.046 228.812Z" fill="#F2F2F2"/>
<path d="M446.36 239.653C445.738 239.783 445.114 239.898 444.486 240H447.881C448.326 239.892 448.768 239.778 449.207 239.653C450.171 239.382 451.121 239.071 452.055 238.72C455.846 237.338 459.212 235.157 461.87 232.363C463.148 230.995 464.191 229.464 464.966 227.819C465.806 225.96 466.34 224.002 466.55 222.005C466.936 217.876 466.628 213.719 465.638 209.673C464.707 205.502 463.204 201.45 461.163 197.612C460.917 197.151 460.664 196.694 460.401 196.24C460.383 196.203 460.356 196.169 460.322 196.143C460.287 196.116 460.246 196.097 460.202 196.087C460.113 196.072 460.021 196.088 459.945 196.134C459.855 196.181 459.788 196.257 459.758 196.347C459.728 196.436 459.738 196.533 459.785 196.617C461.889 200.304 463.484 204.208 464.535 208.242C465.617 212.199 466.092 216.271 465.948 220.343C465.87 224.131 464.554 227.815 462.164 230.936C459.839 233.746 456.781 236 453.259 237.5C451.056 238.447 448.742 239.169 446.36 239.653Z" fill="white"/>
<path d="M438.909 240H439.91C440.022 239.885 440.13 239.769 440.237 239.653C442.517 237.164 444.061 234.198 444.728 231.031C445.537 227.078 444.907 222.996 442.932 219.39C442.381 218.379 441.732 217.413 440.992 216.504C440.729 216.555 440.47 216.612 440.215 216.682C442.162 218.998 443.471 221.696 444.036 224.553C444.54 227.231 444.372 229.976 443.545 232.589C442.718 235.201 441.252 237.614 439.255 239.653C439.143 239.769 439.027 239.885 438.909 240Z" fill="white"/>
<path d="M230.649 139.797H160.371L159.626 120.384C159.594 119.542 159.765 118.704 160.128 117.928C160.491 117.151 161.036 116.455 161.727 115.886C162.418 115.317 163.238 114.889 164.131 114.633C165.024 114.376 165.968 114.296 166.898 114.398L207.795 118.897H207.8C213.863 118.912 219.672 121.085 223.955 124.941C228.238 128.797 230.645 134.021 230.649 139.468V139.797Z" fill="#49DBB8"/>
<path d="M199.326 70.9345H150.311C149.659 70.9343 149.013 71.0496 148.411 71.2736C147.809 71.4977 147.262 71.8262 146.801 72.2403C146.34 72.6544 145.974 73.1461 145.725 73.6872C145.475 74.2283 145.347 74.8083 145.347 75.394V119.431C145.347 120.017 145.475 120.597 145.725 121.138C145.974 121.679 146.34 122.171 146.801 122.585C147.262 122.999 147.809 123.328 148.411 123.552C149.013 123.776 149.659 123.891 150.311 123.891H199.326C199.978 123.891 200.624 123.776 201.226 123.552C201.828 123.328 202.376 122.999 202.837 122.585C203.298 122.171 203.663 121.679 203.913 121.138C204.162 120.597 204.29 120.017 204.29 119.431V75.394C204.29 74.8083 204.162 74.2283 203.913 73.6872C203.663 73.1461 203.298 72.6544 202.837 72.2403C202.376 71.8261 201.828 71.4977 201.226 71.2736C200.624 71.0496 199.978 70.9343 199.326 70.9345Z" fill="#CCCCCC"/>
<path d="M188.287 103.864L165.145 107.913C163.772 108.152 162.35 107.891 161.191 107.189C160.031 106.487 159.229 105.401 158.96 104.168L157.181 95.9604C156.916 94.7271 157.205 93.4495 157.987 92.4078C158.768 91.3661 159.978 90.6454 161.35 90.4039L184.492 86.355C185.865 86.1162 187.287 86.3765 188.447 87.0786C189.606 87.7807 190.408 88.8673 190.677 90.1001L192.456 98.3075C192.722 99.5408 192.432 100.818 191.651 101.86C190.869 102.902 189.66 103.622 188.287 103.864Z" fill="#3F3D56"/>
<path d="M183.657 94.1677L165.996 97.2577C165.673 97.3142 165.338 97.2532 165.065 97.0879C164.792 96.9226 164.604 96.6668 164.541 96.3765C164.478 96.0863 164.546 95.7855 164.73 95.5403C164.914 95.2951 165.199 95.1256 165.522 95.0691L183.183 91.9791C183.506 91.9226 183.841 91.9837 184.114 92.149C184.387 92.3142 184.575 92.5701 184.638 92.8603C184.701 93.1506 184.633 93.4514 184.449 93.6965C184.265 93.9417 183.98 94.1112 183.657 94.1677Z" fill="white"/>
<path d="M180.224 98.7437L171.089 100.342C170.766 100.399 170.431 100.337 170.159 100.172C169.886 100.007 169.697 99.751 169.634 99.4608C169.571 99.1705 169.639 98.8697 169.823 98.6245C170.007 98.3794 170.292 98.2099 170.615 98.1533L179.75 96.5551C179.91 96.5271 180.074 96.5277 180.234 96.5568C180.394 96.586 180.546 96.6431 180.681 96.7249C180.816 96.8067 180.932 96.9117 181.022 97.0337C181.112 97.1558 181.174 97.2926 181.205 97.4363C181.236 97.58 181.236 97.7278 181.203 97.8713C181.171 98.0148 181.107 98.1511 181.016 98.2725C180.925 98.3939 180.808 98.498 180.672 98.5788C180.537 98.6597 180.384 98.7157 180.224 98.7437Z" fill="white"/>
<path d="M204.29 75.394V81.247H145.347V75.394C145.347 74.8083 145.475 74.2283 145.725 73.6872C145.974 73.1461 146.34 72.6544 146.801 72.2403C147.262 71.8262 147.809 71.4977 148.411 71.2736C149.013 71.0496 149.659 70.9343 150.311 70.9345H199.326C199.978 70.9343 200.624 71.0496 201.226 71.2736C201.828 71.4977 202.376 71.8262 202.837 72.2403C203.298 72.6544 203.663 73.1461 203.913 73.6872C204.162 74.2283 204.29 74.8083 204.29 75.394Z" fill="#B3B3B3"/>
<path d="M321.993 83.0799C321.653 82.0931 321.076 81.1852 320.303 80.4204C319.53 79.6555 318.579 79.0522 317.519 78.653C316.458 78.2538 315.313 78.0684 314.164 78.1099C313.015 78.1513 311.89 78.4186 310.868 78.8929L243.434 57.156L240.464 72.2912L307.684 88.8986C308.684 90.3877 310.258 91.4953 312.107 92.0116C313.956 92.5278 315.951 92.4168 317.715 91.6996C319.479 90.9823 320.888 89.7087 321.677 88.1201C322.465 86.5314 322.578 84.7381 321.993 83.0799Z" fill="#FFB8B8"/>
<path opacity="0.2" d="M321.993 83.0799C321.653 82.0931 321.076 81.1852 320.303 80.4204C319.53 79.6555 318.579 79.0522 317.519 78.653C316.458 78.2538 315.313 78.0684 314.164 78.1099C313.015 78.1513 311.89 78.4186 310.868 78.8929L243.434 57.156L240.464 72.2912L307.684 88.8986C308.684 90.3877 310.258 91.4953 312.107 92.0116C313.956 92.5278 315.951 92.4168 317.715 91.6996C319.479 90.9823 320.888 89.7087 321.677 88.1201C322.465 86.5314 322.578 84.7381 321.993 83.0799Z" fill="black"/>
<path d="M255.404 59.9139L249.036 74.8603C248.855 75.2855 248.574 75.6707 248.212 75.9896C247.85 76.3084 247.416 76.5535 246.939 76.7081C246.462 76.8626 245.954 76.9231 245.449 76.8852C244.944 76.8474 244.454 76.7123 244.012 76.4889L228.536 68.6631C226.12 67.8177 224.175 66.1461 223.129 64.0147C222.082 61.8833 222.019 59.4659 222.953 57.2927C223.887 55.1194 225.742 53.3676 228.111 52.4213C230.481 51.4749 233.171 51.4113 235.593 52.2443L252.874 55.6879C253.369 55.7866 253.834 55.98 254.239 56.2548C254.643 56.5297 254.976 56.8795 255.216 57.2806C255.456 57.6816 255.597 58.1245 255.629 58.5789C255.662 59.0333 255.585 59.4887 255.404 59.9139Z" fill="#49DBB8"/>
<path d="M327.301 96.9193L303.138 106.787L306.31 117.517C312.436 138.237 314.062 159.824 311.099 181.097L328.765 184.412L343.409 150.862L338.284 112.707L327.301 96.9193Z" fill="#49DBB8"/>
<path d="M374.711 146.586C358.836 146.586 345.898 156.955 345.27 169.94H404.153C403.525 156.955 390.587 146.586 374.711 146.586Z" fill="#3F3D56"/>
<path d="M362.353 148.824C361.527 90.2114 324.372 95.6036 324.372 95.6036C324.372 95.6036 325.067 113.848 325.401 114.415C349.077 154.662 310.002 201.845 260.264 193.165C259.326 193.001 258.425 192.835 257.561 192.667C251.259 191.484 245.694 188.19 242 183.453C238.305 178.716 236.757 172.892 237.672 167.167C242.571 131.817 218.202 132.443 218.202 132.443H182.568L164.063 117.48C163.409 116.951 162.622 116.575 161.77 116.383C160.917 116.192 160.025 116.191 159.172 116.38C158.319 116.57 157.531 116.944 156.876 117.471C156.221 117.998 155.72 118.66 155.416 119.401L153.036 125.207C153.036 125.207 117.89 128.496 120.818 159.414H131.684C131.658 160.293 131.697 161.172 131.802 162.046L212.894 161.453C217.648 161.419 221.843 164.879 221.863 169.15C221.868 170.19 221.639 171.22 221.191 172.178C220.742 173.137 220.083 174.004 219.253 174.729C218.423 175.453 217.439 176.02 216.359 176.394C215.28 176.769 214.127 176.944 212.971 176.91L199.897 176.518C195.87 192.635 205.755 203.49 216.646 210.315C226.901 216.648 239.069 220.005 251.512 219.936H287.03C333.159 219.936 341.213 185.07 341.213 185.07C365.376 175.86 362.353 148.824 362.353 148.824Z" fill="#3F3D56"/>
<path d="M372.515 239.013C395.261 239.013 413.701 222.446 413.701 202.01C413.701 181.573 395.261 165.006 372.515 165.006C349.768 165.006 331.328 181.573 331.328 202.01C331.328 222.446 349.768 239.013 372.515 239.013Z" fill="#3F3D56"/>
<path d="M372.515 211.079C378.09 211.079 382.609 207.019 382.609 202.01C382.609 197.001 378.09 192.94 372.515 192.94C366.939 192.94 362.42 197.001 362.42 202.01C362.42 207.019 366.939 211.079 372.515 211.079Z" fill="white"/>
<path d="M164.568 239.013C190.752 239.013 211.978 219.943 211.978 196.418C211.978 172.893 190.752 153.823 164.568 153.823C138.384 153.823 117.157 172.893 117.157 196.418C117.157 219.943 138.384 239.013 164.568 239.013Z" fill="#3F3D56"/>
<path d="M164.568 206.858C170.985 206.858 176.188 202.184 176.188 196.418C176.188 190.652 170.985 185.978 164.568 185.978C158.15 185.978 152.948 190.652 152.948 196.418C152.948 202.184 158.15 206.858 164.568 206.858Z" fill="white"/>
<path d="M303.207 109.703L294.513 88.4874C294.06 87.3818 293.853 86.2067 293.906 85.0294C293.958 83.8521 294.268 82.6956 294.818 81.626C295.368 80.5563 296.147 79.5944 297.11 78.7952C298.074 77.996 299.203 77.3752 300.434 76.9681L325.359 68.7246C327.524 68.0082 329.825 67.682 332.131 67.7646C334.436 67.8472 336.701 68.3371 338.796 69.2061C340.891 70.0752 342.775 71.3065 344.341 72.8297C345.906 74.353 347.122 76.1383 347.919 78.0837C348.638 79.8299 349.005 81.6771 349.004 83.5388C348.994 85.9029 348.399 88.2353 347.261 90.3666C346.122 92.498 344.47 94.3746 342.423 95.8602C340.944 96.9259 339.282 97.7678 337.502 98.3528L303.207 109.703Z" fill="#3F3D56"/>
<path d="M348.638 83.5387C348.636 85.8546 348.056 88.1405 346.94 90.2284C345.825 92.3164 344.203 94.1531 342.194 95.6035C339.111 94.8729 336.242 93.5479 333.787 91.7204C331.331 89.893 329.348 87.6071 327.976 85.0216C326.603 82.436 325.873 79.6129 325.838 76.7485C325.802 73.8841 326.461 71.0471 327.77 68.4347C330.281 67.944 332.883 67.9649 335.384 68.4958C337.885 69.0268 340.223 70.0543 342.224 71.5029C344.226 72.9515 345.84 74.7845 346.95 76.8673C348.06 78.95 348.637 81.2296 348.638 83.5387Z" fill="#49DBB8"/>
<path d="M127.042 163.69C132.704 163.69 137.293 158.683 137.293 152.507C137.293 146.331 132.704 141.324 127.042 141.324C121.381 141.324 116.791 146.331 116.791 152.507C116.791 158.683 121.381 163.69 127.042 163.69Z" fill="#49DBB8"/>
<path d="M262.545 192.093H271.522L275.793 171.176L262.544 171.177L262.545 192.093Z" fill="#FFB8B8"/>
<path d="M260.255 189.46L277.934 189.46H277.934C279.414 189.459 280.879 189.721 282.246 190.23C283.613 190.739 284.855 191.484 285.901 192.424C286.947 193.364 287.777 194.48 288.343 195.708C288.909 196.936 289.201 198.252 289.201 199.581V199.91L260.256 199.911L260.255 189.46Z" fill="#2F2E41"/>
<path d="M272.965 183.508C272.86 183.508 272.755 183.504 272.65 183.495L260.227 182.682C259.725 182.64 259.24 182.495 258.809 182.258C258.379 182.021 258.015 181.699 257.746 181.315C257.476 180.932 257.308 180.499 257.255 180.048C257.202 179.597 257.264 179.141 257.438 178.716L274.064 145.156C274.182 144.857 274.231 144.539 274.206 144.222C274.181 143.905 274.084 143.596 273.92 143.315C273.756 143.03 273.527 142.78 273.248 142.58C272.969 142.381 272.646 142.237 272.301 142.157C264.483 140.321 244.424 135.432 227.06 129.712C219.621 127.261 214.936 123.72 213.135 119.185C210.76 113.208 214.273 107.756 214.424 107.527L214.542 107.348L230.881 108.682L248.594 110.036L287.41 128.737C290.663 130.317 293.134 132.94 294.33 136.084C295.527 139.227 295.362 142.66 293.867 145.699L275.972 181.754C275.713 182.276 275.291 182.719 274.757 183.031C274.224 183.342 273.601 183.508 272.965 183.508Z" fill="#2F2E41"/>
<path d="M233.722 42.2869C243.654 42.2869 251.705 35.0531 251.705 26.1296C251.705 17.2062 243.654 9.97235 233.722 9.97235C223.789 9.97235 215.738 17.2062 215.738 26.1296C215.738 35.0531 223.789 42.2869 233.722 42.2869Z" fill="#FFB8B8"/>
<path d="M257.42 194.067H266.397L270.668 173.149L257.418 173.15L257.42 194.067Z" fill="#FFB8B8"/>
<path d="M255.13 191.434L272.808 191.433H272.809C274.288 191.433 275.753 191.695 277.12 192.203C278.487 192.712 279.729 193.458 280.775 194.398C281.822 195.337 282.651 196.453 283.218 197.681C283.784 198.909 284.075 200.226 284.075 201.555V201.884L255.131 201.885L255.13 191.434Z" fill="#2F2E41"/>
<path d="M267.839 185.482C267.735 185.482 267.63 185.477 267.524 185.468L255.101 184.655C254.599 184.614 254.114 184.469 253.684 184.232C253.254 183.995 252.89 183.672 252.62 183.289C252.351 182.906 252.183 182.472 252.13 182.021C252.076 181.571 252.139 181.115 252.312 180.689L268.938 147.13C269.057 146.83 269.105 146.512 269.081 146.195C269.056 145.879 268.959 145.57 268.794 145.288C268.631 145.004 268.402 144.753 268.123 144.554C267.844 144.354 267.521 144.21 267.175 144.131C259.357 142.295 239.299 137.406 221.935 131.686C214.496 129.235 209.81 125.693 208.009 121.159C205.635 115.181 209.148 109.73 209.298 109.501L209.416 109.322L225.755 110.656L243.468 112.009L282.285 130.71C285.537 132.291 288.008 134.914 289.205 138.057C290.401 141.201 290.236 144.634 288.742 147.672L270.846 183.727C270.587 184.249 270.165 184.693 269.632 185.004C269.098 185.316 268.476 185.481 267.839 185.482Z" fill="#2F2E41"/>
<path d="M239.268 51.4488L220.23 45.5282C220.23 45.5282 208.279 53.7775 214.021 74.2421C217.018 84.8025 216.145 95.9499 211.531 106.029C210.976 107.276 210.335 108.491 209.613 109.668C209.613 109.668 230.847 132.692 250.617 115.588L242.929 82.3674C242.929 82.3674 255.01 60.3297 239.268 51.4488Z" fill="#49DBB8"/>
<path d="M235.954 42.8364C233.395 39.3944 231.375 34.6216 234.193 31.3466C236.975 28.1139 242.461 28.5901 246.721 27.1597C252.655 25.1673 256.097 18.9042 255.023 13.2952C253.95 7.68622 248.938 3.03654 242.968 1.13404C236.998 -0.76846 230.266 -0.149722 224.419 2.04112C217.222 4.73808 211.048 9.95516 208.459 16.5638C205.87 23.1725 207.254 31.1074 212.625 36.187C218.383 41.6328 227.42 43.0842 235.779 42.9961" fill="#2F2E41"/>
<path d="M219.226 13.4752C216 15.8341 211.08 14.7864 207.618 12.7161C204.155 10.6459 201.346 7.69794 197.6 6.07477C190.996 3.21319 183.012 5.11549 176.585 8.2852C170.157 11.4549 164.46 15.8339 157.671 18.3213C150.882 20.8088 142.218 20.9317 137.078 16.2349C135.812 19.528 135.709 23.0915 136.781 26.4393C137.854 29.7871 140.05 32.7561 143.069 34.9413C146.089 37.1264 149.786 38.4213 153.655 38.6491C157.524 38.877 161.378 38.0268 164.689 36.2146C172.128 32.1436 176.237 23.6079 184.58 21.3609C189.197 20.1175 194.155 21.119 198.821 22.2036C203.487 23.2883 208.353 24.4603 213.062 23.5369C217.771 22.6135 222.176 18.8116 221.577 14.5148L219.226 13.4752Z" fill="#2F2E41"/>
<path d="M321.098 82.4218C320.625 81.4802 319.928 80.6433 319.055 79.97C318.183 79.2966 317.157 78.8033 316.05 78.5247C314.943 78.2462 313.781 78.1891 312.646 78.3576C311.512 78.5261 310.432 78.9161 309.483 79.5L239.58 65.4043L238.711 80.753L307.697 89.7823C308.895 91.1491 310.609 92.0738 312.514 92.3811C314.42 92.6884 316.385 92.3571 318.036 91.4498C319.688 90.5425 320.912 89.1224 321.477 87.4585C322.041 85.7946 321.906 84.0025 321.098 82.4218Z" fill="#FFB8B8"/>
<path d="M251.836 66.8143L247.57 82.3523C247.448 82.7944 247.222 83.2078 246.907 83.5644C246.592 83.9209 246.195 84.2122 245.743 84.4184C245.291 84.6247 244.795 84.741 244.288 84.7594C243.782 84.7779 243.277 84.6981 242.808 84.5254L226.375 78.4749C223.86 77.9053 221.699 76.4623 220.366 74.4627C219.033 72.463 218.638 70.07 219.267 67.8088C219.895 65.5476 221.497 63.6027 223.72 62.4011C225.943 61.1995 228.605 60.8392 231.123 61.3993L248.746 62.9009C249.25 62.944 249.739 63.0843 250.178 63.3123C250.616 63.5402 250.995 63.8505 251.288 64.2219C251.582 64.5932 251.782 65.0171 251.877 65.4644C251.971 65.9118 251.958 66.3722 251.836 66.8143V66.8143Z" fill="#49DBB8"/>
<path d="M313.023 94.6168C315.854 94.6168 318.148 92.5552 318.148 90.0119C318.148 87.4687 315.854 85.407 313.023 85.407C310.192 85.407 307.897 87.4687 307.897 90.0119C307.897 92.5552 310.192 94.6168 313.023 94.6168Z" fill="#49DBB8"/>
</g>
<defs>
<clipPath id="clip0">
<rect width="607" height="240" fill="white" transform="translate(-67)"/>
</clipPath>
</defs>
</svg>
